<svg version="1.1"
     xmlns="http://www.w3.org/2000/svg" 
     width="40" height="60" viewBox="0,0,40,60">
  <g transform="scale(0.15) translate(244,96)">
    <path style="fill:white; fill-opacity:1.0;"
          d="m0,0v133.056c0,14.208,-2.88,27.072,-8.64,38.592c-5.76,11.328,-14.592,20.352,-26.496,27.072c-11.904,6.528,-26.88,9.79333,-44.928,9.79333c-25.728,0,-45.216,-6.91333,-58.464,-20.73733c-13.248,-14.016,-19.872,-32.448,-19.872,-55.296v-132.48h33.33333v133.34667c0,16.704,1.27467,21.63733,10.10667,30.85333c9.024,9.216,16.845333,10.98,34.893333,10.98c18.624,0,27.324287,2.26257,35.580287,-7.52943c8.448,-9.984,11.153047,-19.04524,11.153047,-34.59724v-132.653z" />
  </g>
</svg>

